<svg width="28" height="28" viewBox="0 0 28 28" fill="none" xmlns="http://www.w3.org/2000/svg">
<path d="M4.49189 10.0566C4.32161 9.28956 4.34775 8.49193 4.56791 7.73768C4.78806 6.98343 5.1951 6.29697 5.75127 5.74196C6.30745 5.18695 6.99475 4.78135 7.74947 4.56278C8.50418 4.3442 9.30186 4.31973 10.0686 4.49162C10.4906 3.83164 11.0719 3.2885 11.759 2.91228C12.4461 2.53607 13.2169 2.33887 14.0002 2.33887C14.7836 2.33887 15.5543 2.53607 16.2414 2.91228C16.9286 3.2885 17.5099 3.83164 17.9319 4.49162C18.6998 4.31898 19.4988 4.34334 20.2547 4.56245C21.0106 4.78156 21.6989 5.18828 22.2554 5.7448C22.8119 6.30131 23.2186 6.98954 23.4377 7.74545C23.6568 8.50137 23.6812 9.30042 23.5086 10.0683C24.1685 10.4903 24.7117 11.0716 25.0879 11.7587C25.4641 12.4458 25.6613 13.2166 25.6613 14C25.6613 14.7833 25.4641 15.5541 25.0879 16.2412C24.7117 16.9283 24.1685 17.5096 23.5086 17.9316C23.6804 18.6983 23.656 19.496 23.4374 20.2507C23.2188 21.0054 22.8132 21.6927 22.2582 22.2489C21.7032 22.8051 21.0167 23.2121 20.2625 23.4323C19.5082 23.6524 18.7106 23.6786 17.9436 23.5083C17.5221 24.1708 16.9403 24.7163 16.252 25.0942C15.5638 25.4721 14.7913 25.6702 14.0061 25.6702C13.2209 25.6702 12.4484 25.4721 11.7601 25.0942C11.0718 24.7163 10.49 24.1708 10.0686 23.5083C9.30186 23.6802 8.50418 23.6557 7.74947 23.4371C6.99475 23.2185 6.30745 22.813 5.75127 22.2579C5.1951 21.7029 4.78806 21.0165 4.56791 20.2622C4.34775 19.508 4.32161 18.7103 4.49189 17.9433C3.82684 17.5224 3.27904 16.9402 2.89945 16.2507C2.51986 15.5612 2.3208 14.787 2.3208 14C2.3208 13.2129 2.51986 12.4387 2.89945 11.7492C3.27904 11.0597 3.82684 10.4775 4.49189 10.0566Z" stroke="#1070B9" stroke-width="2.33333" stroke-linecap="round" stroke-linejoin="round"/>
<path d="M10.5 14.0001L12.8333 16.3334L17.5 11.6667" stroke="#1070B9" stroke-width="2.33333" stroke-linecap="round" stroke-linejoin="round"/>
</svg>
