<svg width="32" height="32" viewBox="0 0 32 32" fill="none" xmlns="http://www.w3.org/2000/svg">
<path d="M19.9998 2.66675H11.9998C11.2635 2.66675 10.6665 3.2637 10.6665 4.00008V6.66675C10.6665 7.40313 11.2635 8.00008 11.9998 8.00008H19.9998C20.7362 8.00008 21.3332 7.40313 21.3332 6.66675V4.00008C21.3332 3.2637 20.7362 2.66675 19.9998 2.66675Z" stroke="#1070B9" stroke-width="2.66667" stroke-linecap="round" stroke-linejoin="round"/>
<path d="M21.3335 5.33325H24.0002C24.7074 5.33325 25.3857 5.6142 25.8858 6.1143C26.3859 6.6144 26.6668 7.29267 26.6668 7.99992V26.6666C26.6668 27.3738 26.3859 28.0521 25.8858 28.5522C25.3857 29.0523 24.7074 29.3333 24.0002 29.3333H8.00016C7.29292 29.3333 6.61464 29.0523 6.11454 28.5522C5.61445 28.0521 5.3335 27.3738 5.3335 26.6666V7.99992C5.3335 7.29267 5.61445 6.6144 6.11454 6.1143C6.61464 5.6142 7.29292 5.33325 8.00016 5.33325H10.6668" stroke="#1070B9" stroke-width="2.66667" stroke-linecap="round" stroke-linejoin="round"/>
<path d="M16 14.6667H21.3333" stroke="#1070B9" stroke-width="2.66667" stroke-linecap="round" stroke-linejoin="round"/>
<path d="M16 21.3333H21.3333" stroke="#1070B9" stroke-width="2.66667" stroke-linecap="round" stroke-linejoin="round"/>
<path d="M10.6665 14.6667H10.6798" stroke="#1070B9" stroke-width="2.66667" stroke-linecap="round" stroke-linejoin="round"/>
<path d="M10.6665 21.3333H10.6798" stroke="#1070B9" stroke-width="2.66667" stroke-linecap="round" stroke-linejoin="round"/>
</svg>
