<svg width="32" height="32" viewBox="0 0 32 32" fill="none" xmlns="http://www.w3.org/2000/svg">
<path d="M17.1068 2.90674C16.7594 2.74827 16.382 2.66626 16.0001 2.66626C15.6183 2.66626 15.2409 2.74827 14.8934 2.90674L3.46678 8.10674C3.23018 8.21106 3.02902 8.38193 2.8878 8.59854C2.74658 8.81516 2.67139 9.06816 2.67139 9.32674C2.67139 9.58532 2.74658 9.83832 2.8878 10.0549C3.02902 10.2715 3.23018 10.4424 3.46678 10.5467L14.9068 15.7601C15.2542 15.9185 15.6316 16.0005 16.0134 16.0005C16.3953 16.0005 16.7727 15.9185 17.1201 15.7601L28.5601 10.5601C28.7967 10.4557 28.9979 10.2849 29.1391 10.0683C29.2803 9.85165 29.3555 9.59865 29.3555 9.34007C29.3555 9.08149 29.2803 8.82849 29.1391 8.61188C28.9979 8.39527 28.7967 8.22439 28.5601 8.12007L17.1068 2.90674Z" stroke="#1070B9" stroke-width="2.66667" stroke-linecap="round" stroke-linejoin="round"/>
<path d="M2.66651 16C2.66588 16.255 2.7384 16.5049 2.87546 16.7199C3.01253 16.935 3.2084 17.1062 3.43984 17.2133L14.9065 22.4267C15.2521 22.5832 15.6271 22.6641 16.0065 22.6641C16.3859 22.6641 16.7609 22.5832 17.1065 22.4267L28.5465 17.2267C28.7825 17.1206 28.9826 16.9481 29.1222 16.7303C29.2619 16.5125 29.3352 16.2587 29.3332 16" stroke="#1070B9" stroke-width="2.66667" stroke-linecap="round" stroke-linejoin="round"/>
<path d="M2.66651 22.6667C2.66588 22.9218 2.7384 23.1716 2.87546 23.3867C3.01253 23.6017 3.2084 23.773 3.43984 23.8801L14.9065 29.0934C15.2521 29.2499 15.6271 29.3309 16.0065 29.3309C16.3859 29.3309 16.7609 29.2499 17.1065 29.0934L28.5465 23.8934C28.7825 23.7873 28.9826 23.6149 29.1222 23.3971C29.2619 23.1792 29.3352 22.9255 29.3332 22.6667" stroke="#1070B9" stroke-width="2.66667" stroke-linecap="round" stroke-linejoin="round"/>
</svg>
