<svg width="28" height="28" viewBox="0 0 28 28" fill="none" xmlns="http://www.w3.org/2000/svg">
<path d="M14.0002 19.8333C14.6445 19.8333 15.1668 19.311 15.1668 18.6667C15.1668 18.0223 14.6445 17.5 14.0002 17.5C13.3558 17.5 12.8335 18.0223 12.8335 18.6667C12.8335 19.311 13.3558 19.8333 14.0002 19.8333Z" stroke="#1070B9" stroke-width="2.33333" stroke-linecap="round" stroke-linejoin="round"/>
<path d="M22.1667 11.6667H5.83333C4.54467 11.6667 3.5 12.7114 3.5 14.0001V23.3334C3.5 24.6221 4.54467 25.6667 5.83333 25.6667H22.1667C23.4553 25.6667 24.5 24.6221 24.5 23.3334V14.0001C24.5 12.7114 23.4553 11.6667 22.1667 11.6667Z" stroke="#1070B9" stroke-width="2.33333" stroke-linecap="round" stroke-linejoin="round"/>
<path d="M8.1665 11.6666V8.16659C8.1665 6.61949 8.78109 5.13576 9.87505 4.0418C10.969 2.94783 12.4527 2.33325 13.9998 2.33325C15.5469 2.33325 17.0307 2.94783 18.1246 4.0418C19.2186 5.13576 19.8332 6.61949 19.8332 8.16659V11.6666" stroke="#1070B9" stroke-width="2.33333" stroke-linecap="round" stroke-linejoin="round"/>
</svg>
