<svg width="24" height="18" viewBox="0 0 24 18" fill="none" xmlns="http://www.w3.org/2000/svg">
<path d="M23.4735 2.92691C24 4.76969 24 8.7185 24 8.7185C24 8.7185 24 12.6234 23.4735 14.5101C23.2102 15.5631 22.3766 16.3529 21.3675 16.6161C19.4808 17.0988 12.0219 17.0988 12.0219 17.0988C12.0219 17.0988 4.5192 17.0988 2.63254 16.6161C1.6234 16.3529 0.789762 15.5631 0.526508 14.5101C0 12.6234 0 8.7185 0 8.7185C0 8.7185 0 4.76969 0.526508 2.92691C0.789762 1.87389 1.6234 1.04025 2.63254 0.776997C4.5192 0.250488 12.0219 0.250488 12.0219 0.250488C12.0219 0.250488 19.4808 0.250488 21.3675 0.776997C22.3766 1.04025 23.2102 1.87389 23.4735 2.92691ZM9.5649 12.2724L15.7952 8.7185L9.5649 5.16457V12.2724Z" fill="#C8CACC"/>
</svg>
